# xmcd CD database file
#
# Track frame offsets:
#	150
#	13563
#	33236
#	54607
#	70011
#	87433
#	98658
#	121191
#	133920
#	148246
#	171418
#	191651
#	206441
#	227144
#	238886
#
# Disc length: 3552 seconds
#
# Revision: 0
# Processed by: cddbd v1.5.1PL0 Copyright (c) Steve Scherf et al.
# Submitted via: CDex 1.51
#
DISCID=d60dde0f
DTITLE=Duke Ellington - Continuum
DYEAR=1900
DGENRE=Jazz
TTITLE0=Duke Ellington - Jump For Joy
TTITLE1=Duke Ellington - Black And Tan Fantasy
TTITLE2=Duke Ellington - Warm Valley
TTITLE3=Duke Ellington - Drop Me Off In Harlem
TTITLE4=Duke Ellington - All Too Soon
TTITLE5=Duke Ellington - Rock-Skippin' At The Blue Note
TTITLE6=Duke Ellington - Jeep's Blues
TTITLE7=Duke Ellington - Ko-Ko
TTITLE8=Duke Ellington - Carney
TTITLE9=Duke Ellington - Blue Serge
TTITLE10=Duke Ellington - Happy-Go-Lucky Local
TTITLE11=Duke Ellington - Harlem Air Shaft
TTITLE12=Duke Ellington - Conga Brava
TTITLE13=Duke Ellington - Blem
TTITLE14=Duke Ellington - Wave
EXTD=
EXTT0=
EXTT1=
EXTT2=
EXTT3=
EXTT4=
EXTT5=
EXTT6=
EXTT7=
EXTT8=
EXTT9=
EXTT10=
EXTT11=
EXTT12=
EXTT13=
EXTT14=
PLAYORDER=
